<svg width="217" height="205" viewBox="0 0 217 205" fill="none" xmlns="http://www.w3.org/2000/svg">
<path d="M157.601 201.214H37.8559C19.0394 201.214 3.78559 185.961 3.78559 167.144V54.988C3.78559 40.4902 12.9603 27.5803 26.6517 22.8127L65.816 9.17481C69.4183 7.92041 73.2057 7.27985 77.0202 7.27985H173.689C191.955 7.27985 206.971 21.6841 207.73 39.934L212.045 143.664C212.422 152.721 209.174 161.555 203.019 168.211L182.616 190.275C176.167 197.249 167.1 201.214 157.601 201.214Z" fill="#0C2A3D" stroke="#0C2A3D" stroke-width="7.57117"/>
<rect x="24.0576" y="3.78559" width="184.409" height="180.995" rx="34.0703" fill="white" stroke="#0C2A3D" stroke-width="7.57117"/>
<path d="M137.215 42.8419L118.287 62.1465L146.679 89.173L163.714 69.8684L137.215 42.8419Z" fill="#FC6629"/>
<path d="M167.077 65.6246L144.092 42.1876C143.328 41.4081 142.42 40.7897 141.422 40.3678C140.423 39.9459 139.353 39.7288 138.272 39.7288C137.191 39.7288 136.121 39.9459 135.123 40.3678C134.124 40.7897 133.217 41.4081 132.453 42.1876L69.0325 106.87C68.2651 107.646 67.6566 108.571 67.2425 109.589C66.8284 110.608 66.6169 111.7 66.6204 112.803V136.245C66.6204 138.471 67.4874 140.605 69.0306 142.179C70.5739 143.753 72.667 144.638 74.8495 144.638H161.254C162.346 144.638 163.392 144.196 164.164 143.409C164.935 142.622 165.369 141.554 165.369 140.441C165.369 139.328 164.935 138.261 164.164 137.474C163.392 136.687 162.346 136.245 161.254 136.245H109.473L167.077 77.4951C167.841 76.7158 168.447 75.7905 168.861 74.7721C169.274 73.7537 169.487 72.6622 169.487 71.5598C169.487 70.4575 169.274 69.366 168.861 68.3476C168.447 67.3292 167.841 66.4039 167.077 65.6246ZM148.911 84.1517L125.931 60.7095L138.275 48.1203L161.254 71.5625L148.911 84.1517Z" fill="#FFB72D"/>
<path d="M167.077 65.6255L144.092 42.1886C143.328 41.4091 142.42 40.7907 141.422 40.3688C140.423 39.9469 139.353 39.7297 138.272 39.7297C137.191 39.7297 136.121 39.9469 135.123 40.3688C134.124 40.7907 133.217 41.4091 132.453 42.1886L69.0325 106.871C68.2651 107.647 67.6566 108.572 67.2425 109.59C66.8284 110.609 66.6169 111.701 66.6204 112.804V136.246C66.6204 138.472 67.4874 140.606 69.0306 142.18C70.5739 143.754 72.667 144.639 74.8495 144.639H161.254C162.346 144.639 163.392 144.196 164.164 143.41C164.935 142.623 165.369 141.555 165.369 140.442C165.369 139.329 164.935 138.262 164.164 137.475C163.392 136.688 162.346 136.246 161.254 136.246H109.473L167.077 77.4961C167.841 76.7167 168.447 75.7914 168.861 74.7731C169.274 73.7547 169.487 72.6631 169.487 71.5608C169.487 70.4585 169.274 69.367 168.861 68.3486C168.447 67.3302 167.841 66.4049 167.077 65.6255ZM97.8342 136.246H74.8495V112.804L120.109 66.6432L143.094 90.0853L97.8342 136.246ZM148.911 84.1527L125.931 60.7105L138.275 48.1213L161.254 71.5634L148.911 84.1527Z" fill="#0C2A3D"/>
</svg>
