<svg width="53" height="54" viewBox="0 0 53 54" fill="none" xmlns="http://www.w3.org/2000/svg">
<path d="M41.8641 52.0136H10C5.02943 52.0136 1 47.9842 1 43.0136V11.7444C1 9.61749 1.7607 7.56072 3.14465 5.94567C4.83771 3.96991 7.30969 2.83276 9.91162 2.83276H42.3187C47.2457 2.83276 51.2569 6.79444 51.3181 11.7211L51.6689 39.9828C51.6794 40.8291 51.5705 41.6726 51.3454 42.4885L50.5399 45.4076C49.463 49.3103 45.9127 52.0136 41.8641 52.0136Z" fill="#0C2A3D" stroke="#0C2A3D" stroke-width="2"/>
<rect x="3.45508" y="1" width="47.4785" height="42.9351" rx="9" fill="#FC6629" stroke="#0C2A3D" stroke-width="2"/>
<path d="M37.0507 29.76C37.1436 29.8529 37.2173 29.9632 37.2676 30.0846C37.3179 30.206 37.3438 30.3361 37.3438 30.4675C37.3438 30.5989 37.3179 30.729 37.2676 30.8504C37.2173 30.9718 37.1436 31.0821 37.0507 31.175C36.9578 31.2679 36.8475 31.3416 36.7261 31.3919C36.6047 31.4422 36.4746 31.4681 36.3432 31.4681C36.2118 31.4681 36.0817 31.4422 35.9603 31.3919C35.8389 31.3416 35.7286 31.2679 35.6357 31.175L27.3432 22.8813L19.0507 31.175C18.8631 31.3627 18.6086 31.4681 18.3432 31.4681C18.0778 31.4681 17.8233 31.3627 17.6357 31.175C17.4481 30.9874 17.3426 30.7329 17.3426 30.4675C17.3426 30.2022 17.4481 29.9477 17.6357 29.76L25.9295 21.4675L17.6357 13.175C17.4481 12.9874 17.3426 12.7329 17.3426 12.4675C17.3426 12.2022 17.4481 11.9477 17.6357 11.76C17.8233 11.5724 18.0778 11.467 18.3432 11.467C18.6086 11.467 18.8631 11.5724 19.0507 11.76L27.3432 20.0538L35.6357 11.76C35.8233 11.5724 36.0778 11.467 36.3432 11.467C36.6086 11.467 36.8631 11.5724 37.0507 11.76C37.2383 11.9477 37.3438 12.2022 37.3438 12.4675C37.3438 12.7329 37.2383 12.9874 37.0507 13.175L28.7569 21.4675L37.0507 29.76Z" fill="#0C2A3D"/>
</svg>
