<svg width="39" height="30" viewBox="0 0 39 30" fill="none" xmlns="http://www.w3.org/2000/svg">
<path d="M37.1548 0H1.48619C1.09203 0 0.71401 0.156581 0.435295 0.435296C0.15658 0.714012 0 1.09203 0 1.48619V26.7515C0 27.5398 0.313159 28.2958 0.87059 28.8533C1.42802 29.4107 2.18406 29.7239 2.97239 29.7239H35.6686C36.457 29.7239 37.213 29.4107 37.7704 28.8533C38.3279 28.2958 38.641 27.5398 38.641 26.7515V1.48619C38.641 1.09203 38.4844 0.714012 38.2057 0.435296C37.927 0.156581 37.549 0 37.1548 0Z" fill="#FFF3DD"/>
<path d="M37.1548 0H1.48619C1.09203 0 0.714011 0.156581 0.435296 0.435296C0.156581 0.714012 0 1.09203 0 1.48619V26.7515C0 27.5398 0.313161 28.2958 0.870592 28.8533C1.42802 29.4107 2.18406 29.7239 2.97239 29.7239H35.6686C36.457 29.7239 37.213 29.4107 37.7704 28.8533C38.3279 28.2958 38.641 27.5398 38.641 26.7515V1.48619C38.641 1.09203 38.4844 0.714012 38.2057 0.435296C37.927 0.156581 37.549 0 37.1548 0ZM19.3205 15.8187L5.30757 2.97239H33.3335L19.3205 15.8187ZM13.8792 14.8619L2.97239 24.8584V4.86543L13.8792 14.8619ZM16.0788 16.8776L18.308 18.9304C18.5822 19.1821 18.9409 19.3217 19.3131 19.3217C19.6853 19.3217 20.0439 19.1821 20.3181 18.9304L22.5474 16.8776L33.3223 26.7515H5.30757L16.0788 16.8776ZM24.7618 14.8619L35.6686 4.86357V24.8603L24.7618 14.8619Z" fill="#0C2A3D"/>
</svg>
