<svg width="39" height="36" viewBox="0 0 39 36" fill="none" xmlns="http://www.w3.org/2000/svg">
<path d="M37.6403 12.1643L19.9653 0.250415C19.7233 0.0871364 19.4388 0 19.1479 0C18.8569 0 18.5725 0.0871364 18.3304 0.250415L0.655447 12.1643C0.453677 12.3004 0.288276 12.4848 0.173932 12.7011C0.0595888 12.9174 -0.000157232 13.1589 3.10756e-07 13.4041V32.7642C3.10756e-07 33.5542 0.310363 34.3118 0.862813 34.8703C1.41526 35.4289 2.16455 35.7427 2.94583 35.7427H35.3499C36.1312 35.7427 36.8805 35.4289 37.4329 34.8703C37.9854 34.3118 38.2958 33.5542 38.2958 32.7642V13.4041C38.2959 13.1589 38.2362 12.9174 38.1218 12.7011C38.0075 12.4848 37.8421 12.3004 37.6403 12.1643Z" fill="#FFF3DD"/>
<path d="M19.9653 0.252517L37.6403 12.2664C37.8421 12.4037 38.0075 12.5896 38.1218 12.8077L35.3499 16.4319L24.907 24.0288L21.893 25.5305H16.4027L13.3888 24.0288L2.94583 16.4319L0.173932 12.8077C0.288276 12.5896 0.453677 12.4037 0.655447 12.2664L18.3304 0.252517C18.5725 0.0878677 18.8569 0 19.1479 0C19.4388 0 19.7233 0.0878677 19.9653 0.252517Z" fill="#E2C6B8"/>
<path d="M37.6403 12.1643L19.9653 0.250415C19.7233 0.0871364 19.4388 0 19.1479 0C18.8569 0 18.5725 0.0871364 18.3304 0.250415L0.655447 12.1643C0.453677 12.3004 0.288276 12.4848 0.173932 12.7011C0.0595888 12.9174 -0.000157232 13.1589 3.10756e-07 13.4041V32.7642C3.10756e-07 33.5542 0.310363 34.3118 0.862813 34.8703C1.41526 35.4289 2.16455 35.7427 2.94583 35.7427H35.3499C36.1312 35.7427 36.8805 35.4289 37.4329 34.8703C37.9854 34.3118 38.2958 33.5542 38.2958 32.7642V13.4041C38.2959 13.1589 38.2362 12.9174 38.1218 12.7011C38.0075 12.4848 37.8421 12.3004 37.6403 12.1643ZM13.3888 23.8288L2.94583 31.275V16.2951L13.3888 23.8288ZM16.4027 25.318H21.893L32.3194 32.7642H5.97635L16.4027 25.318ZM24.907 23.8288L35.3499 16.2951V31.275L24.907 23.8288ZM19.1479 3.27915L34.2287 13.4451L21.893 22.3396H16.4064L4.07077 13.4451L19.1479 3.27915Z" fill="#0C2A3D"/>
</svg>
