<svg width="67" height="65" viewBox="0 0 67 65" fill="none" xmlns="http://www.w3.org/2000/svg">
<circle cx="31.079" cy="33.921" r="30.079" fill="#0C2A3D" stroke="#0C2A3D" stroke-width="2"/>
<circle cx="35.0693" cy="31.079" r="30.079" fill="#FFB72D" stroke="#0C2A3D" stroke-width="2"/>
<circle cx="35.4183" cy="31.0068" r="13.3121" fill="#34B2A7"/>
<path d="M35.4029 15.5517C26.8716 15.5517 19.9631 22.4757 19.9631 31.007C19.9631 39.5383 26.8716 46.4623 35.4029 46.4623C43.9497 46.4623 50.8737 39.5383 50.8737 31.007C50.8737 22.4757 43.9497 15.5517 35.4029 15.5517ZM46.1135 24.8249H41.5542C41.0596 22.8929 40.3486 21.0383 39.4213 19.3228C42.2651 20.2965 44.6298 22.2747 46.1135 24.8249ZM35.4184 18.7046C36.7012 20.5592 37.7058 22.6148 38.3704 24.8249H32.4664C33.131 22.6148 34.1356 20.5592 35.4184 18.7046ZM23.456 34.098C23.2087 33.1089 23.0542 32.0734 23.0542 31.007C23.0542 29.9406 23.2087 28.9051 23.456 27.9159H28.6799C28.5563 28.936 28.4635 29.956 28.4635 31.007C28.4635 32.0579 28.5563 33.078 28.6799 34.098H23.456ZM24.7233 37.1891H29.2827C29.7772 39.121 30.4882 40.9757 31.4155 42.6912C28.5717 41.7175 26.207 39.7547 24.7233 37.1891ZM29.2827 24.8249H24.7233C26.207 22.2593 28.5717 20.2965 31.4155 19.3228C30.4882 21.0383 29.7772 22.8929 29.2827 24.8249ZM35.4184 43.3094C34.1356 41.4548 33.131 39.3992 32.4664 37.1891H38.3704C37.7058 39.3992 36.7012 41.4548 35.4184 43.3094ZM39.0349 34.098H31.8019C31.6628 33.078 31.5546 32.0579 31.5546 31.007C31.5546 29.956 31.6628 28.9205 31.8019 27.9159H39.0349C39.174 28.9205 39.2822 29.956 39.2822 31.007C39.2822 32.0579 39.174 33.078 39.0349 34.098ZM39.4213 42.6912C40.3486 40.9757 41.0596 39.121 41.5542 37.1891H46.1135C44.6298 39.7392 42.2651 41.7175 39.4213 42.6912ZM42.1569 34.098C42.2806 33.078 42.3733 32.0579 42.3733 31.007C42.3733 29.956 42.2806 28.936 42.1569 27.9159H47.3808C47.6281 28.9051 47.7826 29.9406 47.7826 31.007C47.7826 32.0734 47.6281 33.1089 47.3808 34.098H42.1569Z" fill="#0C2A3D"/>
</svg>
