<svg width="53" height="54" viewBox="0 0 53 54" fill="none" xmlns="http://www.w3.org/2000/svg">
<path d="M41.8641 52.0136H10C5.02943 52.0136 1 47.9842 1 43.0136V11.7444C1 9.61749 1.7607 7.56072 3.14465 5.94567C4.83771 3.96991 7.30969 2.83276 9.91162 2.83276H42.3187C47.2457 2.83276 51.2569 6.79444 51.3181 11.7211L51.6689 39.9828C51.6794 40.8291 51.5705 41.6726 51.3454 42.4885L50.5399 45.4076C49.463 49.3103 45.9127 52.0136 41.8641 52.0136Z" fill="#0C2A3D" stroke="#0C2A3D" stroke-width="2"/>
<rect x="3.45508" y="1" width="47.4785" height="42.9351" rx="9" fill="#34B2A7" stroke="#0C2A3D" stroke-width="2"/>
<path d="M37.3432 9.46753H17.3432C16.8128 9.46753 16.3041 9.67824 15.929 10.0533C15.5539 10.4284 15.3432 10.9371 15.3432 11.4675V31.4675C15.3432 31.998 15.5539 32.5067 15.929 32.8817C16.3041 33.2568 16.8128 33.4675 17.3432 33.4675H37.3432C37.8736 33.4675 38.3823 33.2568 38.7574 32.8817C39.1325 32.5067 39.3432 31.998 39.3432 31.4675V11.4675C39.3432 10.9371 39.1325 10.4284 38.7574 10.0533C38.3823 9.67824 37.8736 9.46753 37.3432 9.46753ZM37.3432 31.4675H17.3432V11.4675H37.3432V31.4675Z" fill="#0C2A3D"/>
</svg>
