<svg width="212" height="213" viewBox="0 0 212 213" fill="none" xmlns="http://www.w3.org/2000/svg">
<path d="M168.173 208.945H40.1712C20.2039 208.945 4.01712 192.758 4.01712 172.791V47.1786C4.01712 38.6346 7.07292 30.3723 12.6325 23.8845C19.4337 15.9476 29.3639 11.3795 39.8162 11.3795H170C189.792 11.3795 205.905 27.2941 206.151 47.0849L207.56 160.616C207.602 164.016 207.165 167.404 206.261 170.681L203.025 182.408C198.699 198.086 184.437 208.945 168.173 208.945Z" fill="#0C2A3D" stroke="#0C2A3D" stroke-width="8.03424"/>
<rect x="13.8794" y="4.01712" width="190.727" height="172.475" rx="36.1541" fill="#34B2A7" stroke="#0C2A3D" stroke-width="8.03424"/>
<path d="M160.685 79.8187C160.685 114.969 108.568 143.42 106.348 144.595C105.763 144.91 105.109 145.074 104.445 145.074C103.781 145.074 103.127 144.91 102.542 144.595C100.322 143.42 48.2053 114.969 48.2053 79.8187C48.2146 71.5647 51.4977 63.6514 57.3342 57.8149C63.1707 51.9784 71.084 48.6953 79.338 48.686C89.7072 48.686 98.7859 53.145 104.445 60.6822C110.104 53.145 119.183 48.686 129.552 48.686C137.806 48.6953 145.719 51.9784 151.556 57.8149C157.392 63.6514 160.675 71.5647 160.685 79.8187Z" fill="#0C2A3D"/>
<path d="M168.719 71.304C168.719 106.454 116.602 134.905 114.382 136.08C113.797 136.395 113.143 136.559 112.479 136.559C111.815 136.559 111.161 136.395 110.576 136.08C108.357 134.905 56.2395 106.454 56.2395 71.304C56.2488 63.0499 59.5318 55.1366 65.3683 49.3001C71.2048 43.4636 79.1182 40.1806 87.3722 40.1713C97.7414 40.1713 106.82 44.6303 112.479 52.1674C118.138 44.6303 127.217 40.1713 137.586 40.1713C145.84 40.1806 153.754 43.4636 159.59 49.3001C165.427 55.1366 168.71 63.0499 168.719 71.304Z" fill="#FC6629"/>
<path d="M137.586 40.1713C127.217 40.1713 118.138 44.6303 112.479 52.1674C106.82 44.6303 97.7414 40.1713 87.3722 40.1713C79.1182 40.1806 71.2048 43.4636 65.3683 49.3001C59.5318 55.1366 56.2488 63.0499 56.2395 71.304C56.2395 106.454 108.357 134.905 110.576 136.08C111.161 136.395 111.815 136.559 112.479 136.559C113.143 136.559 113.797 136.395 114.382 136.08C116.602 134.905 168.719 106.454 168.719 71.304C168.71 63.0499 165.427 55.1366 159.59 49.3001C153.754 43.4636 145.84 40.1806 137.586 40.1713ZM112.479 127.945C103.31 122.603 64.2737 98.2639 64.2737 71.304C64.2817 65.1803 66.7179 59.3098 71.0479 54.9797C75.378 50.6496 81.2486 48.2135 87.3722 48.2055C97.1388 48.2055 105.339 53.4077 108.763 61.7633C109.066 62.5001 109.581 63.1303 110.243 63.5738C110.904 64.0173 111.683 64.254 112.479 64.254C113.276 64.254 114.054 64.0173 114.716 63.5738C115.378 63.1303 115.892 62.5001 116.195 61.7633C119.62 53.3926 127.82 48.2055 137.586 48.2055C143.71 48.2135 149.58 50.6496 153.91 54.9797C158.241 59.3098 160.677 65.1803 160.685 71.304C160.685 98.2237 121.638 122.598 112.479 127.945Z" fill="#0C2A3D"/>
</svg>
