<svg width="35" height="35" viewBox="0 0 35 35" fill="none" xmlns="http://www.w3.org/2000/svg">
<path d="M30.499 13.9946C30.499 22.7446 17.5252 29.8271 16.9727 30.1196C16.8271 30.198 16.6643 30.239 16.499 30.239C16.3336 30.239 16.1708 30.198 16.0252 30.1196C15.4727 29.8271 2.49896 22.7446 2.49896 13.9946C2.50128 11.9399 3.31854 9.97001 4.77144 8.51711C6.22435 7.0642 8.19425 6.24694 10.249 6.24463C12.8302 6.24463 15.0902 7.35463 16.499 9.23088C17.9077 7.35463 20.1677 6.24463 22.749 6.24463C24.8037 6.24694 26.7736 7.0642 28.2265 8.51711C29.6794 9.97001 30.4966 11.9399 30.499 13.9946Z" fill="#0C2A3D"/>
<path d="M32.499 11.875C32.499 20.625 19.5252 27.7075 18.9727 28C18.8271 28.0783 18.6643 28.1193 18.499 28.1193C18.3336 28.1193 18.1708 28.0783 18.0252 28C17.4727 27.7075 4.49896 20.625 4.49896 11.875C4.50128 9.82028 5.31854 7.85039 6.77144 6.39748C8.22435 4.94458 10.1942 4.12732 12.249 4.125C14.8302 4.125 17.0902 5.235 18.499 7.11125C19.9077 5.235 22.1677 4.125 24.749 4.125C26.8037 4.12732 28.7736 4.94458 30.2265 6.39748C31.6794 7.85039 32.4966 9.82028 32.499 11.875Z" fill="#FC6629"/>
<path d="M24.749 4.125C22.1677 4.125 19.9077 5.235 18.499 7.11125C17.0902 5.235 14.8302 4.125 12.249 4.125C10.1942 4.12732 8.22435 4.94458 6.77144 6.39748C5.31854 7.85039 4.50128 9.82028 4.49896 11.875C4.49896 20.625 17.4727 27.7075 18.0252 28C18.1708 28.0783 18.3336 28.1193 18.499 28.1193C18.6643 28.1193 18.8271 28.0783 18.9727 28C19.5252 27.7075 32.499 20.625 32.499 11.875C32.4966 9.82028 31.6794 7.85039 30.2265 6.39748C28.7736 4.94458 26.8037 4.12732 24.749 4.125ZM18.499 25.975C16.2165 24.645 6.49896 18.5862 6.49896 11.875C6.50095 10.3506 7.10739 8.88923 8.18529 7.81133C9.26319 6.73342 10.7246 6.12698 12.249 6.125C14.6802 6.125 16.7215 7.42 17.574 9.5C17.6493 9.68341 17.7775 9.84028 17.9422 9.95069C18.1069 10.0611 18.3007 10.12 18.499 10.12C18.6972 10.12 18.8911 10.0611 19.0558 9.95069C19.2205 9.84028 19.3486 9.68341 19.424 9.5C20.2765 7.41625 22.3177 6.125 24.749 6.125C26.2733 6.12698 27.7347 6.73342 28.8126 7.81133C29.8905 8.88923 30.497 10.3506 30.499 11.875C30.499 18.5763 20.779 24.6438 18.499 25.975Z" fill="#0C2A3D"/>
</svg>
