<svg width="58" height="54" viewBox="0 0 58 54" fill="none" xmlns="http://www.w3.org/2000/svg">
<path d="M41.823 52.0961H10.1326C5.16206 52.0961 1.13263 48.0666 1.13263 43.0961V14.4266C1.13263 10.5768 3.5813 7.15329 7.22461 5.90936L17.539 2.38773C18.4753 2.06808 19.4578 1.90498 20.4471 1.90498H46.0223C50.8445 1.90498 54.8098 5.70562 55.0142 10.5235L56.1405 37.0678C56.2434 39.4935 55.3618 41.858 53.696 43.6243L48.3704 49.2711C46.67 51.0741 44.3013 52.0961 41.823 52.0961Z" fill="#0C2A3D" stroke="#0C2A3D" stroke-width="2"/>
<rect x="6.48749" y="1" width="48.7135" height="46.8396" rx="9" fill="#FFB72D" stroke="#0C2A3D" stroke-width="2"/>
<path d="M43.8164 24.4198C43.8164 24.7081 43.7019 24.9845 43.498 25.1884C43.2942 25.3922 43.0177 25.5067 42.7295 25.5067H18.8178C18.5296 25.5067 18.2531 25.3922 18.0493 25.1884C17.8455 24.9845 17.731 24.7081 17.731 24.4198C17.731 24.1315 17.8455 23.8551 18.0493 23.6513C18.2531 23.4474 18.5296 23.3329 18.8178 23.3329H42.7295C43.0177 23.3329 43.2942 23.4474 43.498 23.6513C43.7019 23.8551 43.8164 24.1315 43.8164 24.4198ZM18.8178 16.8116H42.7295C43.0177 16.8116 43.2942 16.6971 43.498 16.4932C43.7019 16.2894 43.8164 16.0129 43.8164 15.7247C43.8164 15.4364 43.7019 15.16 43.498 14.9561C43.2942 14.7523 43.0177 14.6378 42.7295 14.6378H18.8178C18.5296 14.6378 18.2531 14.7523 18.0493 14.9561C17.8455 15.16 17.731 15.4364 17.731 15.7247C17.731 16.0129 17.8455 16.2894 18.0493 16.4932C18.2531 16.6971 18.5296 16.8116 18.8178 16.8116ZM42.7295 32.0281H18.8178C18.5296 32.0281 18.2531 32.1426 18.0493 32.3464C17.8455 32.5502 17.731 32.8267 17.731 33.1149C17.731 33.4032 17.8455 33.6797 18.0493 33.8835C18.2531 34.0873 18.5296 34.2018 18.8178 34.2018H42.7295C43.0177 34.2018 43.2942 34.0873 43.498 33.8835C43.7019 33.6797 43.8164 33.4032 43.8164 33.1149C43.8164 32.8267 43.7019 32.5502 43.498 32.3464C43.2942 32.1426 43.0177 32.0281 42.7295 32.0281Z" fill="#343330"/>
</svg>
