<svg width="53" height="54" viewBox="0 0 53 54" fill="none" xmlns="http://www.w3.org/2000/svg">
<path d="M41.8641 52.0136H10C5.02943 52.0136 1 47.9842 1 43.0136V11.7444C1 9.61749 1.7607 7.56072 3.14465 5.94567C4.83771 3.96991 7.30969 2.83276 9.91162 2.83276H42.3187C47.2457 2.83276 51.2569 6.79444 51.3181 11.7211L51.6689 39.9828C51.6794 40.8291 51.5705 41.6726 51.3454 42.4885L50.5399 45.4076C49.463 49.3103 45.9127 52.0136 41.8641 52.0136Z" fill="#0C2A3D" stroke="#0C2A3D" stroke-width="2"/>
<rect x="3.45508" y="1" width="47.4785" height="42.9351" rx="9" fill="#FFB72D" stroke="#0C2A3D" stroke-width="2"/>
<path d="M42.2856 32.3502C42.2857 32.2188 42.2599 32.0886 42.2096 31.9672C42.1593 31.8458 42.0856 31.7355 41.9927 31.6425C41.8998 31.5496 41.7895 31.4759 41.668 31.4256C41.5466 31.3754 41.4165 31.3496 41.2851 31.3496L13.415 31.3496C13.1496 31.3496 12.8951 31.4551 12.7075 31.6427C12.5199 31.8303 12.4144 32.0848 12.4144 32.3502C12.4144 32.6156 12.5199 32.8701 12.7075 33.0577C12.8951 33.2453 13.1496 33.3507 13.415 33.3507L41.2851 33.3507C41.4165 33.3508 41.5466 33.325 41.668 33.2747C41.7895 33.2245 41.8998 33.1508 41.9927 33.0579C42.0856 32.9649 42.1593 32.8546 42.2096 32.7332C42.2599 32.6118 42.2857 32.4816 42.2856 32.3502Z" fill="#343330"/>
</svg>
