<svg width="212" height="214" viewBox="0 0 212 214" fill="none" xmlns="http://www.w3.org/2000/svg">
<path d="M168.173 208.997H40.1712C20.2039 208.997 4.01712 192.81 4.01712 172.843V47.2305C4.01712 38.6865 7.07292 30.4242 12.6325 23.9364C19.4337 15.9995 29.3639 11.4314 39.8162 11.4314H170C189.792 11.4314 205.905 27.346 206.151 47.1368L207.56 160.668C207.602 164.067 207.165 167.456 206.261 170.733L203.025 182.46C198.699 198.137 184.437 208.997 168.173 208.997Z" fill="#0C2A3D" stroke="#0C2A3D" stroke-width="8.03424"/>
<rect x="13.8795" y="4.069" width="190.727" height="172.475" rx="36.1541" fill="#6627CD" stroke="#0C2A3D" stroke-width="8.03424"/>
<path d="M164.702 88.4287C164.704 97.4448 162.372 106.308 157.932 114.155C153.492 122.002 147.097 128.567 139.368 133.209C131.638 137.851 122.839 140.413 113.826 140.645C104.813 140.878 95.893 138.773 87.9348 134.535L70.8369 140.235C69.4213 140.707 67.9022 140.775 66.4499 140.432C64.9975 140.09 63.6693 139.349 62.6141 138.294C61.559 137.239 60.8185 135.911 60.4758 134.458C60.133 133.006 60.2015 131.487 60.6736 130.071L66.3729 112.973C62.6478 105.97 60.5671 98.2093 60.289 90.2815C60.0108 82.3536 61.5423 74.4665 64.7674 67.219C67.9925 59.9714 72.8263 53.5538 78.9019 48.4533C84.9775 43.3528 92.1353 39.7034 99.8319 37.7822C107.528 35.861 115.562 35.7185 123.321 37.3654C131.081 39.0123 138.364 42.4055 144.617 47.2872C150.87 52.169 155.928 58.411 159.408 65.5396C162.888 72.6682 164.699 80.496 164.702 88.4287Z" fill="white"/>
<path d="M112.479 36.2059C103.463 36.204 94.5999 38.5363 86.7526 42.9759C78.9053 47.4156 72.3411 53.8112 67.699 61.5404C63.0568 69.2696 60.4948 78.069 60.2624 87.0821C60.0299 96.0952 62.1349 105.015 66.3725 112.973L60.6732 130.071C60.2011 131.487 60.1326 133.006 60.4753 134.458C60.8181 135.91 61.5585 137.239 62.6137 138.294C63.6689 139.349 64.9971 140.089 66.4494 140.432C67.9018 140.775 69.4209 140.706 70.8365 140.234L87.9344 134.535C94.9381 138.26 102.698 140.341 110.626 140.619C118.554 140.897 126.441 139.366 133.689 136.141C140.936 132.915 147.354 128.082 152.454 122.006C157.555 115.93 161.204 108.773 163.125 101.076C165.047 93.3795 165.189 85.3464 163.542 77.5865C161.895 69.8266 158.502 62.5439 153.62 56.2911C148.739 50.0384 142.497 44.9799 135.368 41.4998C128.239 38.0196 120.412 36.2092 112.479 36.2059ZM112.479 132.617C104.711 132.622 97.0788 130.576 90.3547 126.687C89.8624 126.401 89.315 126.223 88.7488 126.165C88.1827 126.107 87.6107 126.17 87.0707 126.35L68.2906 132.617L74.5523 113.837C74.7328 113.297 74.7966 112.725 74.7395 112.159C74.6824 111.593 74.5056 111.046 74.2209 110.553C69.35 102.131 67.3944 92.3381 68.6573 82.6919C69.9203 73.0457 74.3314 64.0859 81.2061 57.2024C88.0809 50.3189 97.0351 45.8966 106.68 44.6214C116.324 43.3462 126.12 45.2895 134.548 50.1498C142.975 55.0101 149.563 62.5156 153.29 71.5021C157.016 80.4887 157.673 90.4538 155.158 99.8517C152.643 109.25 147.097 117.555 139.38 123.479C131.664 129.403 122.208 132.615 112.479 132.617Z" fill="#0C2A3D"/>
<path d="M110.456 94.393C109.342 94.393 108.442 94.0287 107.757 93.3003C107.114 92.5719 106.707 91.5649 106.535 90.2794L104.286 70.8687C103.986 68.6405 104.393 66.8408 105.507 65.4697C106.621 64.0556 108.271 63.3486 110.456 63.3486C112.684 63.3486 114.334 64.0556 115.405 65.4697C116.476 66.8408 116.862 68.6405 116.562 70.8687L114.377 90.2794C114.205 91.5649 113.798 92.5719 113.156 93.3003C112.513 94.0287 111.613 94.393 110.456 94.393ZM110.456 109.626C108.528 109.626 106.985 109.047 105.828 107.89C104.714 106.734 104.157 105.212 104.157 103.327C104.157 101.485 104.714 100.006 105.828 98.8921C106.985 97.7352 108.528 97.1567 110.456 97.1567C112.47 97.1567 114.013 97.7352 115.084 98.8921C116.198 100.006 116.755 101.485 116.755 103.327C116.755 105.212 116.198 106.734 115.084 107.89C114.013 109.047 112.47 109.626 110.456 109.626Z" fill="#0C2A3D"/>
</svg>
