<svg width="33" height="33" viewBox="0 0 33 33" fill="none" xmlns="http://www.w3.org/2000/svg">
<path d="M28.2108 6.74379V6.72504C28.3061 6.38324 28.3087 6.02224 28.2184 5.67909C28.1282 5.33594 27.9482 5.02299 27.6971 4.77234C27.4459 4.52169 27.1326 4.34238 26.7892 4.25279C26.4459 4.1632 26.0849 4.16656 25.7433 4.26254H25.7246L1.73207 11.5375C1.33116 11.6503 0.975824 11.8861 0.716296 12.2118C0.456769 12.5375 0.30618 12.9366 0.28582 13.3525C0.270541 13.7572 0.375702 14.1574 0.587985 14.5023C0.800268 14.8472 1.11013 15.1213 1.47832 15.29L10.8533 19.7313L12.7471 21.615L17.2108 31.0388C17.3708 31.3815 17.6256 31.6713 17.945 31.874C18.2644 32.0767 18.6351 32.1837 19.0133 32.1825C19.0708 32.1825 19.1283 32.18 19.1858 32.175C19.5894 32.1424 20.623 31.9922 20.9358 31.735C21.2486 31.4779 21.3309 31.1478 21.441 30.7581L28.2108 6.74379Z" fill="#0C2A3D"/>
<path d="M29.3998 6.40968C29.3998 6.40968 29.3998 6.42218 29.3998 6.42843L22.1248 30.4209C22.0147 30.8106 21.788 31.1573 21.4752 31.4145C21.1624 31.6717 20.7784 31.827 20.3748 31.8597C20.3173 31.8647 20.2598 31.8672 20.2023 31.8672C19.824 31.8684 19.4533 31.7613 19.134 31.5586C18.8146 31.356 18.5598 31.0662 18.3998 30.7234L13.9361 21.2997C13.892 21.2065 13.8778 21.1019 13.8955 21.0003C13.9132 20.8987 13.9618 20.805 14.0348 20.7322L21.1923 13.5734C21.3719 13.3844 21.4706 13.1326 21.4672 12.8719C21.4639 12.6111 21.3588 12.362 21.1744 12.1776C20.99 11.9932 20.7409 11.8881 20.4801 11.8847C20.2194 11.8814 19.9676 11.9801 19.7785 12.1597L12.6098 19.3172C12.5369 19.3902 12.4433 19.4388 12.3417 19.4565C12.2401 19.4742 12.1355 19.46 12.0423 19.4159L2.6673 14.9747C2.29911 14.806 1.98925 14.5318 1.77696 14.1869C1.56468 13.842 1.45952 13.4419 1.4748 13.0372C1.49516 12.6212 1.64575 12.2222 1.90528 11.8965C2.1648 11.5708 2.52014 11.3349 2.92105 11.2222L26.9135 3.94718H26.9323C27.2739 3.85121 27.6349 3.84784 27.9782 3.93743C28.3216 4.02702 28.6349 4.20634 28.886 4.45699C29.1372 4.70764 29.3171 5.02059 29.4074 5.36374C29.4977 5.70689 29.4951 6.06788 29.3998 6.40968Z" fill="#FFF3DD"/>
<path d="M28.8898 4.45218C28.6383 4.20085 28.3243 4.0211 27.9803 3.93146C27.6362 3.84182 27.2745 3.84552 26.9323 3.94218H26.9135L2.92104 11.2222C2.53048 11.3345 2.18341 11.5631 1.92603 11.8776C1.66866 12.1921 1.5132 12.5776 1.48035 12.9826C1.4475 13.3877 1.53882 13.7931 1.74215 14.145C1.94549 14.4968 2.25118 14.7784 2.61854 14.9522L13.321 20.0209L18.3898 30.7234C18.5498 31.0662 18.8046 31.356 19.1239 31.5586C19.4433 31.7613 19.814 31.8684 20.1923 31.8672C20.2498 31.8672 20.3073 31.8647 20.3648 31.8597C20.7684 31.827 21.1524 31.6717 21.4652 31.4145C21.778 31.1573 22.0047 30.8106 22.1148 30.4209L29.3898 6.42843C29.3898 6.42218 29.3898 6.41593 29.3898 6.40968C29.4877 6.06839 29.493 5.70718 29.4051 5.36316C29.3173 5.01914 29.1394 4.70471 28.8898 4.45218ZM20.2035 29.8484L20.1973 29.8659L15.2773 19.4797L21.1823 13.5734C21.3619 13.3844 21.4606 13.1326 21.4572 12.8719C21.4539 12.6111 21.3488 12.362 21.1644 12.1776C20.98 11.9932 20.7309 11.8881 20.4701 11.8847C20.2093 11.8814 19.9576 11.9801 19.7685 12.1597L13.8623 18.0647L3.47479 13.1447H3.49229L27.4748 5.86718L20.2035 29.8484Z" fill="#0C2A3D"/>
</svg>
