<svg width="67" height="65" viewBox="0 0 67 65" fill="none" xmlns="http://www.w3.org/2000/svg">
<circle cx="31.5649" cy="34.1105" r="29.8419" fill="#0C2A3D" stroke="#0C2A3D" stroke-width="2"/>
<circle cx="35.5249" cy="31.2911" r="29.8419" fill="#34B2A7" stroke="#0C2A3D" stroke-width="2"/>
<path d="M48.4499 20.8335C48.4499 20.8335 48.4499 20.846 48.4499 20.8523L41.1749 44.8448C41.0648 45.2345 40.8381 45.5811 40.5253 45.8383C40.2125 46.0955 39.8285 46.2508 39.4249 46.2835C39.3674 46.2885 39.3099 46.291 39.2524 46.291C38.8741 46.2922 38.5034 46.1851 38.1841 45.9825C37.8647 45.7798 37.6099 45.49 37.4499 45.1473L32.9861 35.7235C32.9421 35.6303 32.9279 35.5257 32.9456 35.4241C32.9633 35.3225 33.0119 35.2289 33.0849 35.156L40.2424 27.9973C40.422 27.8082 40.5207 27.5565 40.5173 27.2957C40.514 27.0349 40.4089 26.7858 40.2245 26.6014C40.0401 26.417 39.791 26.3119 39.5302 26.3086C39.2695 26.3052 39.0177 26.4039 38.8286 26.5835L31.6599 33.741C31.587 33.814 31.4934 33.8626 31.3918 33.8803C31.2902 33.898 31.1856 33.8838 31.0924 33.8398L21.7174 29.3985C21.3492 29.2298 21.0393 28.9557 20.8271 28.6108C20.6148 28.2659 20.5096 27.8657 20.5249 27.461C20.5453 27.0451 20.6958 26.646 20.9554 26.3203C21.2149 25.9946 21.5702 25.7587 21.9711 25.646L45.9636 18.371H45.9824C46.324 18.275 46.685 18.2717 47.0283 18.3613C47.3717 18.4509 47.685 18.6302 47.9361 18.8808C48.1873 19.1315 48.3672 19.4444 48.4575 19.7876C48.5478 20.1307 48.5452 20.4917 48.4499 20.8335Z" fill="#FFF3DD"/>
<path d="M47.9399 18.876C47.6884 18.6247 47.3745 18.4449 47.0304 18.3553C46.6863 18.2656 46.3246 18.2694 45.9824 18.366H45.9637L21.9712 25.646C21.5806 25.7583 21.2335 25.987 20.9762 26.3015C20.7188 26.616 20.5633 27.0014 20.5305 27.4064C20.4976 27.8115 20.5889 28.2169 20.7923 28.5688C20.9956 28.9207 21.3013 29.2022 21.6687 29.376L32.3712 34.4448L37.4399 45.1473C37.5999 45.49 37.8547 45.7798 38.1741 45.9825C38.4935 46.1851 38.8642 46.2922 39.2424 46.291C39.2999 46.291 39.3574 46.2885 39.4149 46.2835C39.8185 46.2508 40.2025 46.0955 40.5153 45.8383C40.8281 45.5811 41.0548 45.2345 41.1649 44.8448L48.4399 20.8523C48.4399 20.846 48.4399 20.8398 48.4399 20.8335C48.5378 20.4922 48.5431 20.131 48.4553 19.787C48.3674 19.443 48.1895 19.1285 47.9399 18.876ZM39.2537 44.2723L39.2474 44.2898L34.3274 33.9035L40.2324 27.9973C40.412 27.8082 40.5107 27.5565 40.5074 27.2957C40.504 27.0349 40.3989 26.7858 40.2145 26.6014C40.0301 26.417 39.781 26.3119 39.5202 26.3086C39.2595 26.3052 39.0077 26.4039 38.8187 26.5835L32.9124 32.4885L22.5249 27.5685H22.5424L46.5249 20.291L39.2537 44.2723Z" fill="#0C2A3D"/>
</svg>
