<svg width="33" height="33" viewBox="0 0 33 33" fill="none" xmlns="http://www.w3.org/2000/svg">
<path d="M27.6854 16.214L22.0479 21.134L23.7367 28.459C23.826 28.842 24.9326 28.979 24.7954 29.3475C24.6582 29.716 23.2834 30.2997 22.9654 30.531C22.6474 30.7623 22.2683 30.8947 21.8755 30.9117C21.4826 30.9287 21.0935 30.8295 20.7567 30.6265L14.3679 26.7515L7.99292 30.6265C7.65613 30.8295 7.26698 30.9287 6.87413 30.9117C6.48128 30.8947 6.10216 30.7623 5.78416 30.531C5.46616 30.2997 5.2234 29.9798 5.08623 29.6113C4.94905 29.2427 4.92355 28.842 5.01292 28.459L6.69917 21.1415L1.06042 16.214C0.762177 15.9568 0.546519 15.6173 0.440486 15.238C0.334453 14.8587 0.342766 14.4565 0.464381 14.0819C0.585996 13.7073 0.815501 13.377 1.12411 13.1323C1.43273 12.8876 2.96897 11.8507 3.36143 11.8178L9.63167 12.0628L12.5329 4.14279C12.6844 3.77968 12.94 3.46952 13.2674 3.25136C13.5948 3.0332 13.9795 2.91679 14.3729 2.91679C15.7664 2.91679 16.0748 2.69859 16.4022 2.91675C16.7296 3.13491 17.0614 3.77968 17.2129 4.14279L19.1229 12.0628L26.5529 12.7065C26.9454 12.7395 27.3194 12.8876 27.628 13.1323C27.9366 13.377 28.1661 13.7073 28.2877 14.0819C28.4093 14.4565 28.4176 14.8587 28.3116 15.238C28.2056 15.6173 27.9899 15.9568 27.6917 16.214H27.6854Z" fill="#0C2A3D"/>
<path d="M29.6854 15.0944L24.0479 20.0144L25.7367 27.3394C25.826 27.7223 25.8005 28.1231 25.6634 28.4916C25.5262 28.8601 25.2834 29.18 24.9654 29.4113C24.6474 29.6426 24.2683 29.775 23.8755 29.792C23.4826 29.809 23.0935 29.7098 22.7567 29.5069L16.3679 25.6319L9.99293 29.5069C9.65614 29.7098 9.267 29.809 8.87415 29.792C8.4813 29.775 8.10217 29.6426 7.78417 29.4113C7.46618 29.18 7.22341 28.8601 7.08624 28.4916C6.94907 28.1231 6.92357 27.7223 7.01293 27.3394L8.69918 20.0219L3.06043 15.0944C2.76219 14.8371 2.54653 14.4976 2.4405 14.1183C2.33447 13.739 2.34278 13.3368 2.4644 12.9623C2.58601 12.5877 2.81552 12.2573 3.12413 12.0126C3.43274 11.768 3.80673 11.6198 4.19918 11.5869L11.6317 10.9431L14.5329 4.02312C14.6844 3.66001 14.94 3.34985 15.2674 3.13169C15.5948 2.91353 15.9795 2.79712 16.3729 2.79712C16.7664 2.79712 17.151 2.91353 17.4784 3.13169C17.8059 3.34985 18.0614 3.66001 18.2129 4.02312L21.1229 10.9431L28.5529 11.5869C28.9454 11.6198 29.3194 11.768 29.628 12.0126C29.9366 12.2573 30.1661 12.5877 30.2877 12.9623C30.4093 13.3368 30.4176 13.739 30.3116 14.1183C30.2056 14.4976 29.9899 14.8371 29.6917 15.0944H29.6854Z" fill="#FFB72D"/>
<path d="M30.2729 12.9581C30.1518 12.5849 29.9236 12.2555 29.6166 12.011C29.3097 11.7665 28.9376 11.6177 28.5467 11.5831L21.1229 10.9431L18.2129 4.02312C18.0614 3.66001 17.8059 3.34985 17.4784 3.13169C17.151 2.91353 16.7664 2.79712 16.3729 2.79712C15.9795 2.79712 15.5948 2.91353 15.2674 3.13169C14.94 3.34985 14.6844 3.66001 14.5329 4.02312L11.6317 10.9431L4.19918 11.5869C3.80673 11.6198 3.43274 11.768 3.12413 12.0126C2.81552 12.2573 2.58601 12.5877 2.4644 12.9623C2.34278 13.3368 2.33447 13.739 2.4405 14.1183C2.54653 14.4976 2.76219 14.8371 3.06043 15.0944L8.69918 20.0219L7.00918 27.3394C6.91982 27.7223 6.94532 28.1231 7.08249 28.4916C7.21966 28.8601 7.46243 29.18 7.78042 29.4113C8.09842 29.6426 8.47755 29.775 8.8704 29.792C9.26325 29.809 9.65239 29.7098 9.98918 29.5069L16.3642 25.6319L22.7529 29.5069C23.0897 29.7098 23.4789 29.809 23.8717 29.792C24.2646 29.775 24.6437 29.6426 24.9617 29.4113C25.2797 29.18 25.5224 28.8601 25.6596 28.4916C25.7968 28.1231 25.8223 27.7223 25.7329 27.3394L24.0442 20.0144L29.6817 15.0944C29.9799 14.8363 30.1951 14.4957 30.3003 14.1156C30.4055 13.7355 30.396 13.3328 30.2729 12.9581ZM28.3704 13.5831L22.7329 18.5031C22.4586 18.7418 22.2544 19.0507 22.1426 19.3968C22.0307 19.7428 22.0152 20.1127 22.0979 20.4669L23.7917 27.7969L17.4079 23.9219C17.0965 23.7322 16.7388 23.6319 16.3742 23.6319C16.0095 23.6319 15.6519 23.7322 15.3404 23.9219L8.96543 27.7969L10.6479 20.4719C10.7306 20.1177 10.7152 19.7478 10.6033 19.4018C10.4914 19.0557 10.2873 18.7468 10.0129 18.5081L4.37293 13.5906C4.37247 13.5869 4.37247 13.5831 4.37293 13.5794L11.8029 12.9369C12.1657 12.9049 12.5128 12.7745 12.8069 12.5597C13.101 12.3449 13.3308 12.0539 13.4717 11.7181L16.3729 4.80687L19.2729 11.7181C19.4138 12.0539 19.6436 12.3449 19.9377 12.5597C20.2318 12.7745 20.5789 12.9049 20.9417 12.9369L28.3729 13.5794C28.3729 13.5794 28.3729 13.5869 28.3729 13.5881L28.3704 13.5831Z" fill="#0C2A3D"/>
</svg>
