<svg width="71" height="71" viewBox="0 0 71 71" fill="none" xmlns="http://www.w3.org/2000/svg">
<circle cx="31.594" cy="37.9801" r="28.0525" fill="#0C2A3D" stroke="#0C2A3D" stroke-width="2"/>
<circle cx="35.3242" cy="35.3244" r="28.0525" fill="#FFB72D" stroke="#0C2A3D" stroke-width="2"/>
<path d="M24.8001 47.2729C21.7051 49.0363 19.0865 51.5822 17.1857 54.6757C22.2492 58.7736 28.4808 60.9984 34.8954 60.9984C41.31 60.9984 47.5416 58.7736 52.6051 54.6757C50.7043 51.5822 48.0857 49.0363 44.9907 47.2729C41.8958 45.5094 38.424 44.5851 34.8954 44.5851C31.3669 44.5851 27.8951 45.5094 24.8001 47.2729Z" fill="#34B2A7"/>
<circle cx="35.3242" cy="32.8034" r="10.7819" fill="#957F75"/>
<path d="M35.3242 7.17523C29.7569 7.17523 24.3146 8.82614 19.6855 11.9192C15.0564 15.0122 11.4485 19.4085 9.31794 24.5521C7.18741 29.6956 6.62997 35.3555 7.7161 40.8158C8.80224 46.2762 11.4832 51.2919 15.4199 55.2286C19.3566 59.1653 24.3723 61.8462 29.8326 62.9323C35.293 64.0185 40.9528 63.461 46.0964 61.3305C51.2399 59.2 55.6362 55.5921 58.7293 50.963C61.8223 46.3339 63.4732 40.8916 63.4732 35.3242C63.4645 27.8613 60.496 20.7066 55.2189 15.4296C49.9418 10.1525 42.7871 7.184 35.3242 7.17523ZM19.7153 54.6422C21.3347 51.9494 23.6231 49.7214 26.3582 48.1747C29.0933 46.6279 32.1821 45.815 35.3242 45.815C38.4664 45.815 41.5551 46.6279 44.2902 48.1747C47.0253 49.7214 49.3138 51.9494 50.9331 54.6422C46.5186 58.2219 41.0078 60.1755 35.3242 60.1755C29.6407 60.1755 24.1299 58.2219 19.7153 54.6422ZM25.9412 33.1165C25.9412 31.2607 26.4915 29.4466 27.5225 27.9035C28.5536 26.3605 30.019 25.1579 31.7335 24.4477C33.448 23.7375 35.3346 23.5517 37.1548 23.9138C38.9749 24.2758 40.6468 25.1694 41.959 26.4817C43.2712 27.7939 44.1649 29.4658 44.5269 31.2859C44.889 33.1061 44.7032 34.9927 43.993 36.7072C43.2828 38.4217 42.0802 39.8871 40.5371 40.9181C38.9941 41.9492 37.18 42.4995 35.3242 42.4995C32.8357 42.4995 30.4491 41.5109 28.6894 39.7512C26.9298 37.9916 25.9412 35.605 25.9412 33.1165ZM53.4031 52.3351C50.8014 48.2897 46.9126 45.239 42.3642 43.6751C44.6322 42.1645 46.354 39.9641 47.2748 37.3994C48.1957 34.8347 48.2668 32.0417 47.4777 29.4334C46.6886 26.8251 45.0811 24.54 42.8929 22.9159C40.7047 21.2918 38.052 20.4149 35.327 20.4149C32.6019 20.4149 29.9492 21.2918 27.761 22.9159C25.5729 24.54 23.9654 26.8251 23.1763 29.4334C22.3871 32.0417 22.4583 34.8347 23.3791 37.3994C24.3 39.9641 26.0217 42.1645 28.2897 43.6751C23.7414 45.239 19.8526 48.2897 17.2509 52.3351C13.925 48.8056 11.7051 44.3797 10.8651 39.6034C10.0251 34.8271 10.6017 29.9094 12.5238 25.457C14.446 21.0046 17.6295 17.2123 21.6817 14.548C25.7339 11.8837 30.4774 10.4639 35.327 10.4639C40.1766 10.4639 44.9201 11.8837 48.9723 14.548C53.0244 17.2123 56.208 21.0046 58.1301 25.457C60.0523 29.9094 60.6289 34.8271 59.7889 39.6034C58.9489 44.3797 56.729 48.8056 53.4031 52.3351Z" fill="#0C2A3D"/>
</svg>
